<svg width="24" height="24" viewBox="0 0 24 24" fill="none" xmlns="http://www.w3.org/2000/svg">
<path d="M20.25 6.09375H17.0625L16.3031 3.96563C16.2507 3.82 16.1545 3.69413 16.0278 3.6052C15.9011 3.51627 15.7501 3.46861 15.5953 3.46875H8.40469C8.08828 3.46875 7.80469 3.66797 7.69922 3.96563L6.9375 6.09375H3.75C2.71406 6.09375 1.875 6.93281 1.875 7.96875V18.6562C1.875 19.6922 2.71406 20.5312 3.75 20.5312H20.25C21.2859 20.5312 22.125 19.6922 22.125 18.6562V7.96875C22.125 6.93281 21.2859 6.09375 20.25 6.09375ZM12 16.7812C9.92812 16.7812 8.25 15.1031 8.25 13.0312C8.25 10.9594 9.92812 9.28125 12 9.28125C14.0719 9.28125 15.75 10.9594 15.75 13.0312C15.75 15.1031 14.0719 16.7812 12 16.7812ZM9.75 13.0312C9.75 13.628 9.98705 14.2003 10.409 14.6222C10.831 15.0442 11.4033 15.2812 12 15.2812C12.5967 15.2812 13.169 15.0442 13.591 14.6222C14.0129 14.2003 14.25 13.628 14.25 13.0312C14.25 12.4345 14.0129 11.8622 13.591 11.4403C13.169 11.0183 12.5967 10.7812 12 10.7812C11.4033 10.7812 10.831 11.0183 10.409 11.4403C9.98705 11.8622 9.75 12.4345 9.75 13.0312Z" fill="#58EFFF"/>
<path fill-rule="evenodd" clip-rule="evenodd" d="M16.3031 3.96563L17.0625 6.09375H20.25C21.2859 6.09375 22.125 6.93281 22.125 7.96875V18.6562C22.125 19.6922 21.2859 20.5312 20.25 20.5312H3.75C2.71406 20.5312 1.875 19.6922 1.875 18.6562V7.96875C1.875 6.93281 2.71406 6.09375 3.75 6.09375H6.9375L7.69922 3.96563C7.80469 3.66797 8.08828 3.46875 8.40469 3.46875H15.5953C15.7501 3.46861 15.9011 3.51627 16.0278 3.6052C16.1545 3.69413 16.2507 3.82 16.3031 3.96563ZM15.5948 1.96875C15.595 1.96875 15.5952 1.96875 15.5953 1.96875C16.0585 1.96861 16.5105 2.11135 16.8897 2.3775C17.2692 2.6439 17.5572 3.02098 17.7143 3.45721L17.7159 3.46151L17.7159 3.46151L18.1199 4.59375H20.25C22.1144 4.59375 23.625 6.10439 23.625 7.96875V18.6562C23.625 20.5206 22.1144 22.0312 20.25 22.0312H3.75C1.88564 22.0312 0.375 20.5206 0.375 18.6562V7.96875C0.375 6.10439 1.88564 4.59375 3.75 4.59375H5.8812L6.28632 3.46191C6.60626 2.56266 7.45853 1.96875 8.40469 1.96875H15.5948ZM12 10.7812C11.9965 10.7812 11.9929 10.7813 11.9894 10.7813C11.3965 10.7841 10.8285 11.0208 10.409 11.4403C9.98705 11.8622 9.75 12.4345 9.75 13.0312C9.75 13.628 9.98705 14.2003 10.409 14.6222C10.831 15.0442 11.4033 15.2812 12 15.2812C12.5967 15.2812 13.169 15.0442 13.591 14.6222C14.0129 14.2003 14.25 13.628 14.25 13.0312C14.25 12.4345 14.0129 11.8622 13.591 11.4403C13.1715 11.0208 12.6035 10.7841 12.0106 10.7813C12.0071 10.7813 12.0035 10.7812 12 10.7812ZM12 9.28125C12.0059 9.28125 12.0118 9.28126 12.0177 9.28129C14.0814 9.29083 15.75 10.9653 15.75 13.0312C15.75 15.1031 14.0719 16.7812 12 16.7812C9.92813 16.7812 8.25 15.1031 8.25 13.0312C8.25 10.9653 9.91857 9.29083 11.9823 9.28129C11.9882 9.28126 11.9941 9.28125 12 9.28125Z" fill="#030303"/>
</svg>
