<svg width="24" height="24" viewBox="0 0 24 24" fill="none" xmlns="http://www.w3.org/2000/svg">
<path d="M20.3906 2.95313H15.5578C15.15 2.95313 14.7867 3.23203 14.6906 3.63985C14.3977 4.87735 13.2891 5.76563 12 5.76563C10.7109 5.76563 9.60234 4.87735 9.30938 3.63985C9.26367 3.44424 9.15307 3.26988 8.9956 3.14518C8.83812 3.02048 8.64306 2.95278 8.44219 2.95313H3.60938C3.33587 2.95313 3.07357 3.06178 2.88017 3.25517C2.68677 3.44857 2.57812 3.71087 2.57812 3.98438V9.89063C2.57812 10.1641 2.68677 10.4264 2.88017 10.6198C3.07357 10.8132 3.33587 10.9219 3.60938 10.9219H5.36719V20.0156C5.36719 20.2891 5.47584 20.5514 5.66923 20.7448C5.86263 20.9382 6.12493 21.0469 6.39844 21.0469H17.6016C17.8751 21.0469 18.1374 20.9382 18.3308 20.7448C18.5242 20.5514 18.6328 20.2891 18.6328 20.0156V10.9219H20.3906C20.6641 10.9219 20.9264 10.8132 21.1198 10.6198C21.3132 10.4264 21.4219 10.1641 21.4219 9.89063V3.98438C21.4219 3.71087 21.3132 3.44857 21.1198 3.25517C20.9264 3.06178 20.6641 2.95313 20.3906 2.95313Z" fill="#58EFFF" stroke="#030303" stroke-width="1.5"/>
</svg>
