<svg width="18" height="18" viewBox="0 0 18 18" fill="none" xmlns="http://www.w3.org/2000/svg">
<path d="M9.0375 4.155C9.8475 4.155 10.8675 3.6075 11.475 2.8725C12.0225 2.2125 12.4275 1.2825 12.4275 0.3525C12.4275 0.225 12.4125 0.0975 12.39 0C11.4825 0.0375 10.4025 0.6075 9.75 1.3725C9.2325 1.9575 8.7675 2.8725 8.7675 3.81C8.7675 3.945 8.79 4.0875 8.805 4.1325C8.865 4.1475 8.955 4.155 9.045 4.155H9.0375ZM6.18 18C7.29 18 7.785 17.2575 9.165 17.2575C10.545 17.2575 10.8825 17.9775 12.12 17.9775C13.3575 17.9775 14.145 16.8525 14.91 15.7575C15.765 14.4975 16.125 13.26 16.1475 13.2075C16.065 13.185 13.7475 12.2325 13.7475 9.57C13.7475 7.26 15.5775 6.2175 15.6825 6.135C14.4675 4.395 12.63 4.35 12.12 4.35C10.755 4.35 9.645 5.175 8.9475 5.175C8.19 5.175 7.2 4.395 6.015 4.395C3.78 4.395 1.5 6.2475 1.5 9.75C1.5 11.925 2.3475 14.2275 3.39 15.7125C4.2825 16.9725 5.0625 18 6.18 18Z" fill="white"/>
</svg>
