<svg width="88" height="88" viewBox="0 0 88 88" fill="none" xmlns="http://www.w3.org/2000/svg">
<g clip-path="url(#clip0_4163_5346)">
<rect width="88" height="88" fill="#DBDBDB"/>
<ellipse cx="43.5" cy="37" rx="22.5" ry="22" fill="white"/>
<circle cx="44" cy="90" r="39" fill="white"/>
<path d="M36.9277 37.4109C36.9277 42.6347 35.3052 46.0476 32.0591 46.0476C28.813 46.0476 27.1905 42.6347 27.1905 37.4109C27.1905 32.1871 28.7274 27.9524 32.0591 27.9524C35.295 27.9524 36.9277 32.1871 36.9277 37.4109Z" fill="white"/>
<path fill-rule="evenodd" clip-rule="evenodd" d="M28.5157 30.7878C27.7283 32.4711 27.3452 34.8106 27.3452 37.4109C27.3452 40.0108 27.7496 42.141 28.5439 43.6154C29.3337 45.0816 30.5037 45.8935 32.0591 45.8935C33.6145 45.8935 34.7845 45.0816 35.5744 43.6154C36.3686 42.141 36.773 40.0108 36.773 37.4109C36.773 34.8117 36.3663 32.4722 35.567 30.7886C34.7681 29.106 33.5939 28.1065 32.0591 28.1065C30.4755 28.1065 29.3018 29.1072 28.5157 30.7878ZM28.2351 30.6577C29.0504 28.9149 30.311 27.7983 32.0591 27.7983C33.7602 27.7983 35.0203 28.9161 35.8468 30.6569C36.6728 32.3966 37.0825 34.7863 37.0825 37.4109C37.0825 40.0348 36.6756 42.223 35.8471 43.761C35.0142 45.3072 33.7498 46.2017 32.0591 46.2017C30.3684 46.2017 29.1041 45.3072 28.2711 43.761C27.4426 42.223 27.0357 40.0348 27.0357 37.4109C27.0357 34.7875 27.4212 32.3977 28.2351 30.6577Z" fill="black"/>
<path d="M44.8095 37.4109C44.8095 42.6347 43.187 46.0476 39.9409 46.0476C36.6948 46.0476 35.0723 42.6347 35.0723 37.4109C35.0723 32.1871 36.6092 27.9524 39.9409 27.9524C43.1767 27.9524 44.8095 32.1871 44.8095 37.4109Z" fill="white"/>
<path fill-rule="evenodd" clip-rule="evenodd" d="M36.2895 30.9419C35.5021 32.6251 35.119 34.9646 35.119 37.565C35.119 40.1649 35.5234 42.2951 36.3176 43.7694C37.1075 45.2357 38.2775 46.0476 39.8329 46.0476C41.3883 46.0476 42.5583 45.2357 43.3481 43.7694C44.1424 42.2951 44.5468 40.1649 44.5468 37.565C44.5468 34.9658 44.1401 32.6263 43.3408 30.9427C42.5419 29.2601 41.3676 28.2606 39.8329 28.2606C38.2493 28.2606 37.0756 29.2613 36.2895 30.9419ZM36.0089 30.8118C36.8242 29.069 38.0848 27.9524 39.8329 27.9524C41.534 27.9524 42.7941 29.0702 43.6205 30.811C44.4465 32.5507 44.8563 34.9404 44.8563 37.565C44.8563 40.1889 44.4494 42.3771 43.6209 43.9151C42.7879 45.4613 41.5236 46.3558 39.8329 46.3558C38.1422 46.3558 36.8778 45.4613 36.0449 43.9151C35.2164 42.3771 34.8095 40.1889 34.8095 37.565C34.8095 34.9416 35.195 32.5518 36.0089 30.8118Z" fill="black"/>
<path fill-rule="evenodd" clip-rule="evenodd" d="M31.1722 44.8621C32.7599 44.8621 34.047 42.5987 34.047 39.8066C34.047 37.0146 32.7599 34.7511 31.1722 34.7511C29.5844 34.7511 28.2973 37.0146 28.2973 39.8066C28.2973 41.0229 28.5416 42.1388 28.9485 43.011L29.9424 42.4397C30.1062 42.3455 30.3156 42.4014 30.4102 42.5645C30.5048 42.7276 30.4487 42.9362 30.2849 43.0304L29.2778 43.6094C29.7837 44.3894 30.4465 44.8621 31.1722 44.8621Z" fill="black"/>
<path fill-rule="evenodd" clip-rule="evenodd" d="M39.0539 44.8621C40.6417 44.8621 41.9288 42.5987 41.9288 39.8066C41.9288 37.0146 40.6417 34.7511 39.0539 34.7511C37.4662 34.7511 36.1791 37.0146 36.1791 39.8066C36.1791 41.0229 36.4234 42.1388 36.8303 43.011L37.8241 42.4397C37.988 42.3455 38.1974 42.4014 38.292 42.5645C38.3866 42.7276 38.3305 42.9362 38.1667 43.0304L37.1596 43.6094C37.6654 44.3894 38.3283 44.8621 39.0539 44.8621Z" fill="black"/>
</g>
<defs>
<clipPath id="clip0_4163_5346">
<rect width="88" height="88" fill="white"/>
</clipPath>
</defs>
</svg>
