<svg width="18" height="18" viewBox="0 0 18 18" fill="none" xmlns="http://www.w3.org/2000/svg">
<path d="M17.28 0H0.72C0.32175 0 0 0.32175 0 0.72V17.28C0 17.6782 0.32175 18 0.72 18H17.28C17.6782 18 18 17.6782 18 17.28V0.72C18 0.32175 17.6782 0 17.28 0ZM13.1287 5.70825L8.39025 12.2783C8.32402 12.3707 8.23671 12.446 8.13556 12.498C8.03442 12.5499 7.92234 12.577 7.80862 12.577C7.69491 12.577 7.58283 12.5499 7.48168 12.498C7.38054 12.446 7.29323 12.3707 7.227 12.2783L4.42125 8.39025C4.33575 8.271 4.42125 8.1045 4.5675 8.1045H5.62275C5.85225 8.1045 6.0705 8.21475 6.2055 8.40375L7.8075 10.6267L11.3445 5.72175C11.4795 5.535 11.6955 5.4225 11.9272 5.4225H12.9825C13.1287 5.4225 13.2142 5.589 13.1287 5.70825Z" fill="#030303"/>
</svg>
