<svg width="24" height="24" viewBox="0 0 24 24" fill="none" xmlns="http://www.w3.org/2000/svg">
<g id="checkbox/buttons">
<rect id="Rectangle 116" x="5.90625" y="5.43262" width="13.0484" height="11.7579" fill="white"/>
<path id="AiFillCheckSquare" d="M20.28 3H3.72C3.32175 3 3 3.32175 3 3.72V20.28C3 20.6782 3.32175 21 3.72 21H20.28C20.6782 21 21 20.6782 21 20.28V3.72C21 3.32175 20.6782 3 20.28 3ZM16.1287 8.70825L11.3902 15.2783C11.324 15.3707 11.2367 15.446 11.1356 15.498C11.0344 15.5499 10.9223 15.577 10.8086 15.577C10.6949 15.577 10.5828 15.5499 10.4817 15.498C10.3805 15.446 10.2932 15.3707 10.227 15.2783L7.42125 11.3902C7.33575 11.271 7.42125 11.1045 7.5675 11.1045H8.62275C8.85225 11.1045 9.0705 11.2147 9.2055 11.4037L10.8075 13.6267L14.3445 8.72175C14.4795 8.535 14.6955 8.4225 14.9272 8.4225H15.9825C16.1287 8.4225 16.2142 8.589 16.1287 8.70825Z" fill="#030303"/>
</g>
</svg>
