<svg width="24" height="24" viewBox="0 0 24 24" fill="none" xmlns="http://www.w3.org/2000/svg">
<path fill-rule="evenodd" clip-rule="evenodd" d="M3.375 2.625H20.625C21.0398 2.625 21.375 2.96016 21.375 3.375V20.625C21.375 21.0398 21.0398 21.375 20.625 21.375H3.375C2.96016 21.375 2.625 21.0398 2.625 20.625V3.375C2.625 2.96016 2.96016 2.625 3.375 2.625ZM10.9393 11.9999L8.42027 9.48088C8.34735 9.40796 8.34735 9.28863 8.42027 9.21571L9.21577 8.42022C9.28869 8.3473 9.40801 8.3473 9.48093 8.42022L12 10.9393L14.5191 8.42022C14.592 8.3473 14.7113 8.3473 14.7842 8.42022L15.5797 9.21571C15.6526 9.28863 15.6526 9.40796 15.5797 9.48088L13.0607 11.9999L15.5797 14.519C15.6526 14.5919 15.6526 14.7113 15.5797 14.7842L14.7842 15.5797C14.7113 15.6526 14.592 15.6526 14.5191 15.5797L12 13.0606L9.48093 15.5797C9.40801 15.6526 9.28869 15.6526 9.21577 15.5797L8.42027 14.7842C8.34735 14.7113 8.34735 14.5919 8.42027 14.519L10.9393 11.9999Z" fill="#030303"/>
</svg>
