<svg width="44" height="44" viewBox="0 0 44 44" fill="none" xmlns="http://www.w3.org/2000/svg">
<path d="M22.9149 11H21.0816C20.9186 11 20.8372 11.0815 20.8372 11.2444V20.8387H11.7314C11.5685 20.8387 11.487 20.9202 11.487 21.0832V22.9165C11.487 23.0795 11.5685 23.1609 11.7314 23.1609H20.8372V32.7556C20.8372 32.9185 20.9186 33 21.0816 33H22.9149C23.0779 33 23.1594 32.9185 23.1594 32.7556V23.1609H32.2648C32.4277 23.1609 32.5092 23.0795 32.5092 22.9165V21.0832C32.5092 20.9202 32.4277 20.8387 32.2648 20.8387H23.1594V11.2444C23.1594 11.0815 23.0779 11 22.9149 11Z" fill="#DBDBDB"/>
<path fill-rule="evenodd" clip-rule="evenodd" d="M44 22C44 34.1503 34.1503 44 22 44C9.84974 44 0 34.1503 0 22C0 9.84974 9.84974 0 22 0C34.1503 0 44 9.84974 44 22ZM42.1667 22C42.1667 33.1377 33.1377 42.1667 22 42.1667C10.8623 42.1667 1.83333 33.1377 1.83333 22C1.83333 10.8623 10.8623 1.83333 22 1.83333C33.1377 1.83333 42.1667 10.8623 42.1667 22Z" fill="#DBDBDB"/>
</svg>
