<svg width="24" height="24" viewBox="0 0 24 24" fill="none" xmlns="http://www.w3.org/2000/svg">
<path d="M21.3187 20.0273L15.232 13.9406C16.1765 12.7195 16.6875 11.2265 16.6875 9.6562C16.6875 7.77652 15.9539 6.01402 14.6273 4.68511C13.3007 3.3562 11.5335 2.62495 9.6562 2.62495C7.77886 2.62495 6.01167 3.35855 4.68511 4.68511C3.3562 6.01167 2.62495 7.77652 2.62495 9.6562C2.62495 11.5335 3.35855 13.3007 4.68511 14.6273C6.01167 15.9562 7.77652 16.6875 9.6562 16.6875C11.2265 16.6875 12.7171 16.1765 13.9382 15.2343L20.025 21.3187C20.0428 21.3366 20.064 21.3507 20.0873 21.3604C20.1106 21.3701 20.1356 21.375 20.1609 21.375C20.1861 21.375 20.2111 21.3701 20.2345 21.3604C20.2578 21.3507 20.279 21.3366 20.2968 21.3187L21.3187 20.2992C21.3366 20.2813 21.3507 20.2601 21.3604 20.2368C21.3701 20.2135 21.375 20.1885 21.375 20.1632C21.375 20.138 21.3701 20.113 21.3604 20.0897C21.3507 20.0663 21.3366 20.0451 21.3187 20.0273ZM13.3687 13.3687C12.375 14.3601 11.0578 14.9062 9.6562 14.9062C8.25464 14.9062 6.93745 14.3601 5.9437 13.3687C4.9523 12.375 4.4062 11.0578 4.4062 9.6562C4.4062 8.25464 4.9523 6.93511 5.9437 5.9437C6.93745 4.9523 8.25464 4.4062 9.6562 4.4062C11.0578 4.4062 12.3773 4.94995 13.3687 5.9437C14.3601 6.93745 14.9062 8.25464 14.9062 9.6562C14.9062 11.0578 14.3601 12.3773 13.3687 13.3687Z" fill="#030303" stroke="#030303"/>
</svg>
