<svg width="24" height="24" viewBox="0 0 24 24" fill="none" xmlns="http://www.w3.org/2000/svg">
<path d="M10.0894 8.06469H11.5249V14.6362C11.5249 14.7217 11.5948 14.7916 11.6803 14.7916H12.8458C12.9313 14.7916 13.0012 14.7217 13.0012 14.6362V8.06469H14.4406C14.5708 8.06469 14.6426 7.91512 14.563 7.81411L12.3874 5.05963C12.3728 5.04105 12.3543 5.02603 12.3331 5.0157C12.3119 5.00537 12.2886 5 12.265 5C12.2414 5 12.2181 5.00537 12.1969 5.0157C12.1757 5.02603 12.1572 5.04105 12.1426 5.05963L9.96701 7.81217C9.88736 7.91512 9.95924 8.06469 10.0894 8.06469ZM19.3746 14.0535H18.2091C18.1236 14.0535 18.0537 14.1234 18.0537 14.2089V17.2003H6.47631V14.2089C6.47631 14.1234 6.40638 14.0535 6.32091 14.0535H5.1554C5.06993 14.0535 5 14.1234 5 14.2089V18.055C5 18.3989 5.27778 18.6766 5.6216 18.6766H18.9084C19.2522 18.6766 19.53 18.3989 19.53 18.055V14.2089C19.53 14.1234 19.4601 14.0535 19.3746 14.0535Z" fill="black"/>
</svg>
