<svg width="179" height="52" viewBox="0 0 179 52" fill="none" xmlns="http://www.w3.org/2000/svg">
<path d="M166.014 13.5625C173.887 13.5625 178.188 19.3844 178.188 27.4556C178.188 35.4607 173.358 42.0103 165.154 42.0103C161.251 42.0103 157.745 40.2241 157.745 40.2241V50.4785L150.6 52.0002C150.534 51.934 150.6 41.8119 150.6 13.8933H157.745V18.7228C158.803 16.5396 161.45 13.5625 166.014 13.5625ZM170.844 27.4556C170.844 23.0892 169.058 19.649 164.559 19.649C160.391 19.649 157.745 23.4862 157.745 30.3004V34.0052C158.406 34.5345 160.656 36.0561 163.897 36.0561C168.528 36.0561 170.844 32.0867 170.844 27.4556Z" fill="black"/>
<path d="M138.649 41.6129V13.959H145.927V41.6129H138.649Z" fill="black"/>
<path d="M142.288 8.99781C144.669 8.99781 146.522 7.6085 146.522 5.29298C146.522 2.97745 144.669 1.6543 142.288 1.6543C139.972 1.6543 138.054 2.97745 138.054 5.22682C138.054 7.6085 139.972 8.99781 142.288 8.99781Z" fill="#58EFFF"/>
<path d="M121.362 35.3941H136.975L135.387 41.6129H109.255L123.743 20.1117H111.438L113.026 13.959H135.85L121.362 35.3941Z" fill="black"/>
<path d="M91.5331 42.0102C83.925 42.0102 79.5586 36.1883 79.5586 28.0509C79.5586 20.0458 84.5866 13.5623 92.7901 13.5623C96.6935 13.5623 100.001 15.3486 100.001 15.3486V1.52163L107.146 0C107.213 0.0661569 107.146 13.6947 107.146 41.6132H100.001V36.8499C98.8767 38.9669 96.1642 42.0102 91.5331 42.0102ZM86.9021 28.117C86.9021 32.4835 88.6884 35.9237 93.0548 35.9237C97.1566 35.9237 100.001 32.0865 100.001 25.2723V21.5013C99.3398 21.0382 97.2889 19.4504 94.0471 19.4504C89.4161 19.4504 86.9021 23.4198 86.9021 28.117Z" fill="black"/>
<path d="M77.8643 41.8783C77.2027 41.8783 76.078 41.9445 74.2918 41.9445C67.1467 41.9445 64.6989 38.6366 64.6989 31.0946V19.6493H59.6709L61.1925 13.9597H64.6989V8.204L71.9762 6.61621V13.9597H78.6582V19.6493H71.9762V31.2269C71.9762 34.204 72.4393 35.5271 74.2256 35.9241C75.6811 36.2549 77.335 36.1887 79.2536 35.9903L77.8643 41.8783Z" fill="black"/>
<path d="M61.114 27.8523C61.114 36.9159 54.6967 42.0762 46.5593 42.0762C38.4881 42.0762 31.9385 36.9159 31.9385 27.7862C31.9385 18.7226 38.4881 13.4961 46.5593 13.4961C54.6967 13.4961 61.114 18.7226 61.114 27.8523ZM53.8367 27.8523C53.8367 22.4935 50.6611 19.4503 46.4932 19.4503C42.5237 19.4503 39.1497 22.4936 39.1497 27.7862C39.1497 33.2111 42.5237 36.122 46.4932 36.122C50.6611 36.122 53.8367 33.2111 53.8367 27.8523Z" fill="black"/>
<path d="M29.906 27.8523C29.906 36.9159 23.4887 42.0762 15.3513 42.0762C7.28009 42.0762 0.730469 36.9159 0.730469 27.7862C0.730469 18.7226 7.28009 13.4961 15.3513 13.4961C23.4887 13.4961 29.906 18.7226 29.906 27.8523ZM22.6287 27.8523C22.6287 22.4935 19.4531 19.4503 15.2852 19.4503C11.3157 19.4503 7.94166 22.4936 7.94166 27.7862C7.94166 33.2111 11.3157 36.122 15.2852 36.122C19.4531 36.122 22.6287 33.2111 22.6287 27.8523Z" fill="black"/>
</svg>
