<svg width="54" height="57" viewBox="0 0 54 57" fill="none" xmlns="http://www.w3.org/2000/svg">
<g id="Frame 310">
<path id="Ellipse 7" d="M29.7831 29.233C29.7831 44.9044 24.9155 55.1431 15.1772 55.1431C5.43883 55.1431 0.571289 44.9044 0.571289 29.233C0.571289 13.5616 5.18216 0.857422 15.1772 0.857422C24.8847 0.857422 29.7831 13.5616 29.7831 29.233Z" fill="white"/>
<path id="Ellipse 7 (Stroke)" fill-rule="evenodd" clip-rule="evenodd" d="M4.54726 9.36397C2.18502 14.4138 1.03586 21.4322 1.03586 29.2333C1.03586 37.033 2.24903 43.4235 4.63179 47.8467C7.00139 52.2454 10.5113 54.6812 15.1775 54.6812C19.8438 54.6812 23.3537 52.2454 25.7233 47.8467C28.106 43.4235 29.3192 37.033 29.3192 29.2333C29.3192 21.4358 28.0992 14.4171 25.7011 9.36636C23.3045 4.31869 19.7818 1.32004 15.1775 1.32004C10.4267 1.32004 6.90575 4.32222 4.54726 9.36397ZM3.70565 8.97359C6.15135 3.74541 9.93334 0.395508 15.1775 0.395508C20.2808 0.395508 24.061 3.74894 26.5405 8.9712C29.0185 14.1904 30.2476 21.3594 30.2476 29.2333C30.2476 37.105 29.027 43.6696 26.5414 48.2837C24.0427 52.9222 20.2496 55.6057 15.1775 55.6057C10.1054 55.6057 6.31238 52.9222 3.81363 48.2837C1.32803 43.6696 0.107422 37.105 0.107422 29.2333C0.107422 21.363 1.26371 14.1937 3.70565 8.97359Z" fill="black"/>
<path id="Ellipse 8" d="M53.4286 29.233C53.4286 44.9044 48.561 55.1431 38.8227 55.1431C29.0843 55.1431 24.2168 44.9044 24.2168 29.233C24.2168 13.5616 28.8277 0.857422 38.8227 0.857422C48.5302 0.857422 53.4286 13.5616 53.4286 29.233Z" fill="white"/>
<path id="Ellipse 8 (Stroke)" fill-rule="evenodd" clip-rule="evenodd" d="M27.8686 9.82589C25.5063 14.8757 24.3572 21.8941 24.3572 29.6952C24.3572 37.495 25.5703 43.8854 27.9531 48.3086C30.3227 52.7073 33.8326 55.1431 38.4988 55.1431C43.1651 55.1431 46.6749 52.7073 49.0446 48.3086C51.4273 43.8854 52.6405 37.495 52.6405 29.6952C52.6405 21.8977 51.4205 14.879 49.0224 9.82828C46.6258 4.78061 43.1031 1.78195 38.4988 1.78195C33.748 1.78195 30.227 4.78413 27.8686 9.82589ZM27.0269 9.4355C29.4726 4.20732 33.2546 0.857422 38.4988 0.857422C43.6021 0.857422 47.3823 4.21085 49.8618 9.43311C52.3398 14.6523 53.5689 21.8214 53.5689 29.6952C53.5689 37.5669 52.3483 44.1315 49.8627 48.7456C47.364 53.3841 43.5709 56.0677 38.4988 56.0677C33.4267 56.0677 29.6337 53.3841 27.1349 48.7456C24.6493 44.1315 23.4287 37.5669 23.4287 29.6952C23.4287 21.825 24.585 14.6557 27.0269 9.4355Z" fill="black"/>
<path id="Subtract" fill-rule="evenodd" clip-rule="evenodd" d="M12.5161 51.587C17.2792 51.587 21.1405 44.7967 21.1405 36.4204C21.1405 28.0442 17.2792 21.2539 12.5161 21.2539C7.7529 21.2539 3.8916 28.0442 3.8916 36.4204C3.8916 40.0692 4.62429 43.417 5.84505 46.0337L8.82667 44.3195C9.31812 44.0369 9.94654 44.2046 10.2303 44.694C10.514 45.1834 10.3456 45.8092 9.85418 46.0917L6.83291 47.8287C8.35055 50.1686 10.3391 51.587 12.5161 51.587Z" fill="black"/>
<path id="Subtract_2" fill-rule="evenodd" clip-rule="evenodd" d="M36.1616 51.587C40.9247 51.587 44.786 44.7967 44.786 36.4204C44.786 28.0442 40.9247 21.2539 36.1616 21.2539C31.3984 21.2539 27.5371 28.0442 27.5371 36.4204C27.5371 40.0692 28.2698 43.417 29.4906 46.0337L32.4722 44.3195C32.9636 44.0369 33.592 44.2046 33.8758 44.694C34.1595 45.1834 33.9911 45.8092 33.4997 46.0917L30.4784 47.8287C31.9961 50.1686 33.9846 51.587 36.1616 51.587Z" fill="black"/>
</g>
</svg>
