<svg width="24" height="24" viewBox="0 0 24 24" fill="none" xmlns="http://www.w3.org/2000/svg">
<path d="M18.232 15.0961C19.0374 15.8984 19.679 16.8496 20.1211 17.8969C20.557 18.9258 20.7891 20.0156 20.8125 21.1359C20.8131 21.161 20.8087 21.1858 20.7996 21.2091C20.7905 21.2324 20.7767 21.2537 20.7593 21.2716C20.7418 21.2895 20.7209 21.3037 20.6979 21.3134C20.6748 21.3231 20.65 21.3281 20.625 21.3281H4.78125H3.375C3.34998 21.3281 3.3252 21.3231 3.30214 21.3134C3.27909 21.3037 3.2582 21.2895 3.24073 21.2716C3.22326 21.2537 3.20954 21.2324 3.2004 21.2091C3.19126 21.1858 3.18687 21.161 3.1875 21.1359C3.20902 20.0228 3.44372 18.924 3.8789 17.8992C4.32188 16.8524 4.96338 15.9013 5.76797 15.0984C6.57656 14.2875 7.51875 13.6523 8.56875 13.2094C8.57812 13.2047 8.5875 13.2023 8.59687 13.1977C7.13672 12.1406 6.1875 10.4227 6.1875 8.48438C6.1875 5.27344 8.78906 2.67188 12 2.67188C15.2109 2.67188 17.8125 5.27344 17.8125 8.48438C17.8125 10.4227 16.8633 12.1406 15.4031 13.1953C15.4125 13.2 15.4219 13.2023 15.4312 13.207C16.478 13.65 17.4291 14.2915 18.232 15.0961Z" fill="#030303"/>
</svg>
