<svg width="20" height="20" viewBox="0 0 20 20" fill="none" xmlns="http://www.w3.org/2000/svg">
<g clip-path="url(#clip0_929_46556)">
<circle cx="10" cy="9.99902" r="9.5" fill="white" stroke="#F3F3F3"/>
<path d="M6.82125 12.999C6.84625 12.999 6.87125 12.9965 6.89625 12.9928L8.99875 12.624C9.02375 12.619 9.0475 12.6078 9.065 12.589L14.3637 7.29027C14.3753 7.27871 14.3845 7.26497 14.3908 7.24985C14.3971 7.23473 14.4003 7.21852 14.4003 7.20215C14.4003 7.18578 14.3971 7.16957 14.3908 7.15445C14.3845 7.13932 14.3753 7.12559 14.3637 7.11402L12.2863 5.03527C12.2625 5.01152 12.2312 4.99902 12.1975 4.99902C12.1638 4.99902 12.1325 5.01152 12.1088 5.03527L6.81 10.334C6.79125 10.3528 6.78 10.3753 6.775 10.4003L6.40625 12.5028C6.39409 12.5697 6.39843 12.6387 6.41891 12.7036C6.43938 12.7685 6.47537 12.8274 6.52375 12.8753C6.60625 12.9553 6.71 12.999 6.82125 12.999ZM7.66375 10.819L12.1975 6.28652L13.1138 7.20277L8.58 11.7353L7.46875 11.9315L7.66375 10.819ZM14.6 14.049H5.4C5.17875 14.049 5 14.2278 5 14.449V14.899C5 14.954 5.045 14.999 5.1 14.999H14.9C14.955 14.999 15 14.954 15 14.899V14.449C15 14.2278 14.8213 14.049 14.6 14.049Z" fill="#030303"/>
</g>
<defs>
<clipPath id="clip0_929_46556">
<rect width="20" height="20" fill="white" transform="translate(0 -0.000976562)"/>
</clipPath>
</defs>
</svg>
